<svg width="24" height="24" viewBox="0 0 24 24" fill="none" xmlns="http://www.w3.org/2000/svg">
<path fill-rule="evenodd" clip-rule="evenodd" d="M5.84002 9.85591C7.63109 13.7541 10.8127 16.8434 14.762 18.5189L14.774 18.5239L15.538 18.8639C16.0099 19.0744 16.5399 19.116 17.0388 18.9818C17.5378 18.8475 17.9754 18.5457 18.278 18.1269L19.552 16.3639C19.5895 16.312 19.6056 16.2477 19.597 16.1842C19.5885 16.1208 19.5559 16.0631 19.506 16.0229L17.282 14.2279C17.2558 14.2067 17.2255 14.1911 17.1931 14.1819C17.1606 14.1728 17.1266 14.1702 17.0932 14.1745C17.0598 14.1788 17.0275 14.1899 16.9985 14.2069C16.9694 14.224 16.9441 14.2468 16.924 14.2739L16.058 15.4419C15.956 15.5797 15.8098 15.6784 15.6439 15.7215C15.4779 15.7646 15.3022 15.7496 15.146 15.6789C12.1878 14.3375 9.81745 11.9672 8.47602 9.00891C8.40532 8.85271 8.39028 8.67699 8.43341 8.51105C8.47653 8.3451 8.57522 8.19894 8.71302 8.09691L9.88002 7.22991C9.90713 7.20987 9.92991 7.18455 9.94699 7.15548C9.96407 7.1264 9.97509 7.09417 9.97938 7.06073C9.98368 7.02728 9.98117 6.99331 9.972 6.96087C9.96283 6.92842 9.94718 6.89816 9.92601 6.87191L8.13202 4.64791C8.09187 4.59804 8.03413 4.56547 7.97069 4.55692C7.90724 4.54836 7.84294 4.56446 7.79102 4.60191L6.01802 5.88191C5.59641 6.18602 5.29312 6.62673 5.15968 7.12915C5.02623 7.63156 5.07088 8.16469 5.28601 8.63791L5.84002 9.85591ZM14.17 19.8969C9.87934 18.0746 6.42294 14.717 4.47702 10.4809L4.47502 10.4789L3.92102 9.25891C3.56244 8.47035 3.48792 7.58196 3.71014 6.74468C3.93236 5.90741 4.43759 5.17288 5.14002 4.66591L6.91302 3.38591C7.27614 3.12383 7.72593 3.01094 8.16978 3.07047C8.61363 3.12999 9.01777 3.35741 9.29902 3.70591L11.094 5.93091C11.2421 6.11449 11.3516 6.32611 11.4159 6.55307C11.4802 6.78003 11.4979 7.01764 11.468 7.25163C11.4381 7.48561 11.3612 7.71114 11.242 7.91465C11.1227 8.11817 10.9635 8.29547 10.774 8.43591L10.104 8.93191C11.2372 11.1279 13.026 12.9167 15.222 14.0499L15.719 13.3799C15.8595 13.1905 16.0367 13.0315 16.2401 12.9123C16.4436 12.7932 16.669 12.7163 16.9028 12.6864C17.1367 12.6566 17.3742 12.6742 17.6011 12.7384C17.8279 12.8026 18.0395 12.9119 18.223 13.0599L20.448 14.8549C20.7968 15.1362 21.0244 15.5405 21.0839 15.9846C21.1435 16.4287 21.0304 16.8787 20.768 17.2419L19.494 19.0059C18.9897 19.7038 18.2606 20.207 17.4291 20.4308C16.5977 20.6546 15.7145 20.5854 14.928 20.2349L14.17 19.8969Z" fill="#6E62E5"/>
</svg>
