<svg width="90" height="84" viewBox="0 0 90 84" fill="none" xmlns="http://www.w3.org/2000/svg">
<path d="M30.5362 0L32.7985 9.2799C34.0815 14.5424 34.7229 17.1737 36.0931 19.2974C37.3047 21.1753 38.9206 22.7588 40.8227 23.9321C42.9738 25.2589 45.6175 25.8469 50.9049 27.023L61.0724 29.2844L50.9049 31.5458C45.6175 32.7219 42.9738 33.3099 40.8227 34.6367C38.9206 35.81 37.3047 37.3935 36.0931 39.2714C34.7229 41.3951 34.0815 44.0264 32.7985 49.2889L30.5362 58.5688L28.2739 49.2889C26.9909 44.0264 26.3495 41.3951 24.9793 39.2714C23.7677 37.3935 22.1518 35.81 20.2497 34.6367C18.0986 33.3099 15.4549 32.7219 10.1675 31.5458L0 29.2844L10.1675 27.023C15.4549 25.8469 18.0986 25.2589 20.2497 23.9321C22.1518 22.7588 23.7677 21.1753 24.9793 19.2974C26.3495 17.1737 26.9909 14.5424 28.2739 9.2799L30.5362 0Z" fill="#6E62E5"/>
<path d="M70.5332 46.2385L70.7307 47.0575C72.0002 52.3243 72.635 54.9577 74 57.0853C75.207 58.9666 76.8193 60.5544 78.7188 61.7325C80.8669 63.0648 83.5097 63.6593 88.7953 64.8483L90.0001 65.1193L88.7953 65.3903C83.5097 66.5792 80.8669 67.1737 78.7188 68.506C76.8193 69.6842 75.207 71.2719 74 73.1533C72.635 75.2808 72.0002 77.9142 70.7307 83.181L70.5332 84L70.3358 83.181C69.0662 77.9142 68.4315 75.2808 67.0665 73.1533C65.8594 71.2719 64.2472 69.6842 62.3477 68.506C60.1995 67.1737 57.5567 66.5792 52.2711 65.3903L51.0664 65.1193L52.2711 64.8483C57.5567 63.6593 60.1995 63.0648 62.3477 61.7325C64.2472 60.5544 65.8594 58.9666 67.0665 57.0853C68.4315 54.9577 69.0662 52.3243 70.3358 47.0575L70.5332 46.2385Z" fill="#6E62E5"/>
</svg>
